<svg width="48" height="48" viewBox="0 0 48 48" fill="none" xmlns="http://www.w3.org/2000/svg">
  <defs>
    <linearGradient id="a2aGradient" x1="4" y1="4" x2="44" y2="44" gradientUnits="userSpaceOnUse">
      <stop offset="0%" stop-color="#10b981"/>
      <stop offset="100%" stop-color="#06b6d4"/>
    </linearGradient>
  </defs>
  <!-- Left Agent -->
  <rect x="4" y="14" width="14" height="12" rx="3" stroke="url(#a2aGradient)" stroke-width="2" fill="none"/>
  <circle cx="8" cy="20" r="1.5" fill="url(#a2aGradient)"/>
  <circle cx="14" cy="20" r="1.5" fill="url(#a2aGradient)"/>
  <line x1="11" y1="10" x2="11" y2="14" stroke="url(#a2aGradient)" stroke-width="2" stroke-linecap="round"/>
  <circle cx="11" cy="9" r="1.5" fill="url(#a2aGradient)"/>
  <!-- Right Agent -->
  <rect x="30" y="14" width="14" height="12" rx="3" stroke="url(#a2aGradient)" stroke-width="2" fill="none"/>
  <circle cx="34" cy="20" r="1.5" fill="url(#a2aGradient)"/>
  <circle cx="40" cy="20" r="1.5" fill="url(#a2aGradient)"/>
  <line x1="37" y1="10" x2="37" y2="14" stroke="url(#a2aGradient)" stroke-width="2" stroke-linecap="round"/>
  <circle cx="37" cy="9" r="1.5" fill="url(#a2aGradient)"/>
  <!-- Connection arrows -->
  <path d="M18 17L26 17" stroke="url(#a2aGradient)" stroke-width="2" stroke-linecap="round"/>
  <path d="M24 15L27 17L24 19" stroke="url(#a2aGradient)" stroke-width="2" stroke-linecap="round" stroke-linejoin="round"/>
  <path d="M30 23L22 23" stroke="url(#a2aGradient)" stroke-width="2" stroke-linecap="round"/>
  <path d="M24 21L21 23L24 25" stroke="url(#a2aGradient)" stroke-width="2" stroke-linecap="round" stroke-linejoin="round"/>
  <!-- Task/Transaction symbol -->
  <rect x="18" y="32" width="12" height="8" rx="2" stroke="url(#a2aGradient)" stroke-width="1.5" fill="none" opacity="0.8"/>
  <path d="M21 36L23 38L27 34" stroke="url(#a2aGradient)" stroke-width="1.5" stroke-linecap="round" stroke-linejoin="round" opacity="0.8"/>
  <!-- Vertical connections -->
  <line x1="11" y1="26" x2="11" y2="30" stroke="url(#a2aGradient)" stroke-width="1.5" stroke-linecap="round" opacity="0.6"/>
  <line x1="11" y1="30" x2="18" y2="36" stroke="url(#a2aGradient)" stroke-width="1.5" stroke-linecap="round" opacity="0.6"/>
  <line x1="37" y1="26" x2="37" y2="30" stroke="url(#a2aGradient)" stroke-width="1.5" stroke-linecap="round" opacity="0.6"/>
  <line x1="37" y1="30" x2="30" y2="36" stroke="url(#a2aGradient)" stroke-width="1.5" stroke-linecap="round" opacity="0.6"/>
</svg>
