<svg width="48" height="48" viewBox="0 0 48 48" fill="none" xmlns="http://www.w3.org/2000/svg">
  <defs>
    <linearGradient id="agiGradient" x1="4" y1="4" x2="44" y2="44" gradientUnits="userSpaceOnUse">
      <stop offset="0%" stop-color="#06b6d4"/>
      <stop offset="100%" stop-color="#8b5cf6"/>
    </linearGradient>
  </defs>
  <!-- AI Robot Head -->
  <rect x="12" y="8" width="24" height="20" rx="4" stroke="url(#agiGradient)" stroke-width="2" fill="none"/>
  <!-- Eyes -->
  <circle cx="18" cy="18" r="3" fill="url(#agiGradient)" opacity="0.8"/>
  <circle cx="30" cy="18" r="3" fill="url(#agiGradient)" opacity="0.8"/>
  <!-- Neural pattern -->
  <circle cx="18" cy="18" r="1" fill="white"/>
  <circle cx="30" cy="18" r="1" fill="white"/>
  <!-- Mouth/Processing indicator -->
  <rect x="16" y="23" width="16" height="2" rx="1" fill="url(#agiGradient)" opacity="0.6"/>
  <!-- Antenna -->
  <line x1="24" y1="8" x2="24" y2="4" stroke="url(#agiGradient)" stroke-width="2" stroke-linecap="round"/>
  <circle cx="24" cy="3" r="2" fill="url(#agiGradient)"/>
  <!-- Identity badge -->
  <rect x="16" y="32" width="16" height="10" rx="2" stroke="url(#agiGradient)" stroke-width="2" fill="none"/>
  <line x1="19" y1="36" x2="29" y2="36" stroke="url(#agiGradient)" stroke-width="1.5" stroke-linecap="round" opacity="0.7"/>
  <line x1="19" y1="39" x2="26" y2="39" stroke="url(#agiGradient)" stroke-width="1.5" stroke-linecap="round" opacity="0.7"/>
  <!-- Connection dots -->
  <circle cx="8" cy="18" r="2" fill="url(#agiGradient)" opacity="0.5"/>
  <circle cx="40" cy="18" r="2" fill="url(#agiGradient)" opacity="0.5"/>
  <line x1="10" y1="18" x2="12" y2="18" stroke="url(#agiGradient)" stroke-width="1.5" opacity="0.5"/>
  <line x1="36" y1="18" x2="38" y2="18" stroke="url(#agiGradient)" stroke-width="1.5" opacity="0.5"/>
</svg>
