<svg width="48" height="48" viewBox="0 0 48 48" fill="none" xmlns="http://www.w3.org/2000/svg">
  <defs>
    <linearGradient id="batchGradient" x1="4" y1="4" x2="44" y2="44" gradientUnits="userSpaceOnUse">
      <stop offset="0%" stop-color="#f59e0b"/>
      <stop offset="100%" stop-color="#ef4444"/>
    </linearGradient>
  </defs>
  <!-- Central source -->
  <circle cx="12" cy="24" r="6" stroke="url(#batchGradient)" stroke-width="2" fill="none"/>
  <circle cx="12" cy="24" r="3" fill="url(#batchGradient)" opacity="0.6"/>
  <!-- Target nodes -->
  <circle cx="38" cy="8" r="4" stroke="url(#batchGradient)" stroke-width="2" fill="none"/>
  <circle cx="42" cy="20" r="4" stroke="url(#batchGradient)" stroke-width="2" fill="none"/>
  <circle cx="42" cy="34" r="4" stroke="url(#batchGradient)" stroke-width="2" fill="none"/>
  <circle cx="38" cy="44" r="4" stroke="url(#batchGradient)" stroke-width="2" fill="none"/>
  <circle cx="28" cy="44" r="4" stroke="url(#batchGradient)" stroke-width="2" fill="none"/>
  <!-- Arrows -->
  <path d="M17 20L32 10" stroke="url(#batchGradient)" stroke-width="2" stroke-linecap="round"/>
  <path d="M30 9L34 8L32 12" stroke="url(#batchGradient)" stroke-width="1.5" stroke-linecap="round" stroke-linejoin="round"/>

  <path d="M18 22L36 19" stroke="url(#batchGradient)" stroke-width="2" stroke-linecap="round"/>
  <path d="M34 17L38 18L35 21" stroke="url(#batchGradient)" stroke-width="1.5" stroke-linecap="round" stroke-linejoin="round"/>

  <path d="M18 26L36 32" stroke="url(#batchGradient)" stroke-width="2" stroke-linecap="round"/>
  <path d="M35 30L38 32L34 34" stroke="url(#batchGradient)" stroke-width="1.5" stroke-linecap="round" stroke-linejoin="round"/>

  <path d="M17 28L33 41" stroke="url(#batchGradient)" stroke-width="2" stroke-linecap="round"/>
  <path d="M31 39L35 42L31 43" stroke="url(#batchGradient)" stroke-width="1.5" stroke-linecap="round" stroke-linejoin="round"/>

  <path d="M15 29L25 40" stroke="url(#batchGradient)" stroke-width="2" stroke-linecap="round"/>
  <path d="M23 38L27 42L24 43" stroke="url(#batchGradient)" stroke-width="1.5" stroke-linecap="round" stroke-linejoin="round"/>
  <!-- 500 label -->
  <text x="6" y="38" font-family="Inter, sans-serif" font-size="6" font-weight="bold" fill="url(#batchGradient)">500</text>
</svg>
