<svg width="48" height="48" viewBox="0 0 48 48" fill="none" xmlns="http://www.w3.org/2000/svg">
  <defs>
    <linearGradient id="scheduleGradient" x1="4" y1="4" x2="44" y2="44" gradientUnits="userSpaceOnUse">
      <stop offset="0%" stop-color="#3b82f6"/>
      <stop offset="100%" stop-color="#06b6d4"/>
    </linearGradient>
  </defs>
  <!-- Clock face -->
  <circle cx="20" cy="20" r="14" stroke="url(#scheduleGradient)" stroke-width="2" fill="none"/>
  <circle cx="20" cy="20" r="2" fill="url(#scheduleGradient)"/>
  <!-- Clock hands -->
  <line x1="20" y1="20" x2="20" y2="10" stroke="url(#scheduleGradient)" stroke-width="2" stroke-linecap="round"/>
  <line x1="20" y1="20" x2="28" y2="20" stroke="url(#scheduleGradient)" stroke-width="2" stroke-linecap="round"/>
  <!-- Hour markers -->
  <line x1="20" y1="8" x2="20" y2="10" stroke="url(#scheduleGradient)" stroke-width="1.5" opacity="0.7"/>
  <line x1="32" y1="20" x2="30" y2="20" stroke="url(#scheduleGradient)" stroke-width="1.5" opacity="0.7"/>
  <line x1="20" y1="32" x2="20" y2="30" stroke="url(#scheduleGradient)" stroke-width="1.5" opacity="0.7"/>
  <line x1="8" y1="20" x2="10" y2="20" stroke="url(#scheduleGradient)" stroke-width="1.5" opacity="0.7"/>
  <!-- Gear -->
  <circle cx="36" cy="32" r="8" stroke="url(#scheduleGradient)" stroke-width="2" fill="none"/>
  <circle cx="36" cy="32" r="3" stroke="url(#scheduleGradient)" stroke-width="1.5" fill="none"/>
  <!-- Gear teeth -->
  <line x1="36" y1="22" x2="36" y2="26" stroke="url(#scheduleGradient)" stroke-width="2" stroke-linecap="round"/>
  <line x1="36" y1="38" x2="36" y2="42" stroke="url(#scheduleGradient)" stroke-width="2" stroke-linecap="round"/>
  <line x1="44" y1="32" x2="42" y2="32" stroke="url(#scheduleGradient)" stroke-width="2" stroke-linecap="round"/>
  <line x1="28" y1="32" x2="30" y2="32" stroke="url(#scheduleGradient)" stroke-width="2" stroke-linecap="round"/>
  <!-- Repeat arrows -->
  <path d="M10 40C6 40 4 38 4 34" stroke="url(#scheduleGradient)" stroke-width="1.5" stroke-linecap="round" opacity="0.8"/>
  <path d="M4 36L4 34L6 34" stroke="url(#scheduleGradient)" stroke-width="1.5" stroke-linecap="round" stroke-linejoin="round" opacity="0.8"/>
  <path d="M14 44C18 44 20 42 20 38" stroke="url(#scheduleGradient)" stroke-width="1.5" stroke-linecap="round" opacity="0.8"/>
  <path d="M20 40L20 38L18 38" stroke="url(#scheduleGradient)" stroke-width="1.5" stroke-linecap="round" stroke-linejoin="round" opacity="0.8"/>
</svg>
